 <svg  version="1.0" xmlns="http://www.w3.org/2000/svg"  width="300.000000pt" height="300.000000pt" viewBox="0 0 300.000000 300.000000"  preserveAspectRatio="xMidYMid meet">  <g transform="translate(0.000000,300.000000) scale(0.100000,-0.100000)" fill="#ffffff" stroke="none"> <path d="M1200 2205 c0 -20 50 -72 78 -80 33 -10 29 29 -7 66 -31 31 -71 39 -71 14z"/> <path d="M1657 2200 c-24 -19 -46 -75 -34 -87 22 -21 77 41 77 87 0 25 -10 25 -43 0z"/> <path d="M1445 2170 c-18 -20 -26 -82 -13 -95 22 -23 65 47 54 90 -8 30 -17 31 -41 5z"/> <path d="M1853 2143 c-9 -36 -5 -61 15 -91 15 -23 16 -23 29 -6 18 24 16 70 -3 99 -21 32 -32 31 -41 -2z"/> <path d="M1097 2124 c-33 -18 -47 -50 -47 -105 0 -46 9 -48 51 -11 26 23 33 38 37 80 5 56 2 59 -41 36z"/> <path d="M1340 2120 c0 -7 18 -39 40 -72 22 -33 40 -68 40 -77 0 -20 -66 -161 -76 -161 -3 0 -34 25 -69 55 -61 54 -76 78 -90 139 -10 46 -27 11 -19 -39 8 -50 16 -67 66 -131 46 -62 59 -101 48 -146 -29 -113 -43 -158 -49 -158 -3 0 -37 22 -75 48 -106 72 -126 115 -136 288 -4 75 -12 140 -17 145 -11 11 -28 -164 -26 -261 1 -69 33 -154 76 -201 17 -20 77 -77 132 -125 172 -153 242 -246 204 -270 -6 -3 -32 5 -57 19 -67 36 -112 46 -280 61 -276 25 -340 85 -357 331 -7 103 -14 145 -23 145 -12 0 -14 -304 -2 -334 6 -16 9 -30 7 -33 -2 -2 -67 -6 -145 -10 -121 -5 -144 -4 -166 10 -29 19 -36 21 -36 8 0 -5 15 -19 34 -30 24 -15 68 -25 163 -35 167 -19 176 -21 254 -72 61 -40 147 -73 227 -89 17 -4 32 -10 31 -13 0 -10 -216 -111 -273 -127 -67 -20 -146 -19 -261 5 -104 21 -205 26 -205 10 0 -5 18 -10 40 -10 22 0 91 -17 153 -37 100 -34 123 -38 212 -37 92 0 111 4 244 47 174 58 249 64 324 28 71 -34 91 -75 90 -180 -1 -79 -16 -200 -29 -243 -5 -17 -26 -18 -262 -18 -299 0 -723 -17 -735 -29 -13 -13 81 -21 408 -31 388 -13 1273 -13 1675 0 333 10 417 17 403 31 -13 13 -440 29 -764 29 l-287 0 -6 32 c-3 18 -8 110 -12 203 l-6 170 31 46 c33 50 77 75 110 64 11 -3 39 -32 61 -64 99 -141 204 -159 479 -81 57 17 129 30 160 31 48 0 52 2 31 10 -29 12 -115 5 -210 -18 -100 -23 -235 -22 -291 4 -47 21 -93 72 -81 89 4 5 37 10 75 11 90 1 159 35 256 128 98 94 145 125 187 125 19 0 34 5 34 10 0 18 -74 10 -125 -14 -27 -13 -72 -43 -99 -66 -65 -54 -120 -86 -176 -101 -40 -10 -58 -9 -156 15 -61 14 -138 26 -172 26 -61 0 -62 0 -62 28 0 41 33 67 146 113 54 22 106 47 114 54 30 27 93 46 194 60 56 7 119 18 141 24 47 12 83 36 73 47 -4 4 -15 1 -24 -7 -18 -15 -194 -20 -226 -7 -16 7 -15 12 12 55 38 60 67 137 76 202 6 50 -11 177 -26 186 -4 3 -7 -34 -6 -83 1 -78 -2 -93 -29 -147 -16 -33 -34 -60 -39 -60 -12 0 -85 185 -85 217 -1 15 -5 30 -11 33 -15 9 -12 -78 5 -155 8 -36 14 -91 15 -122 0 -95 -42 -130 -225 -187 -54 -17 -102 -31 -106 -31 -4 0 -14 22 -23 49 -8 27 -34 81 -56 120 -23 40 -46 96 -52 125 -16 81 4 113 113 187 49 33 89 64 89 70 0 6 -15 1 -32 -10 -18 -12 -55 -33 -83 -47 -27 -15 -60 -35 -72 -47 -27 -24 -29 -20 -37 74 -5 69 -43 199 -57 199 -12 0 -12 -2 7 -72 12 -46 14 -103 12 -247 l-3 -186 38 -92 c48 -119 49 -168 5 -258 -18 -36 -37 -65 -43 -65 -6 0 -19 16 -29 35 -10 19 -54 73 -97 121 -43 48 -85 101 -94 119 -28 59 -19 141 30 295 29 89 45 159 45 190 0 47 -4 54 -57 113 -31 34 -58 64 -60 66 -1 2 -3 -1 -3 -9z m40 -340 c0 -6 -9 -36 -20 -68 -54 -148 -35 -251 65 -361 33 -36 80 -90 104 -119 57 -69 74 -78 106 -55 27 20 73 115 82 167 5 31 -7 107 -23 150 -5 13 -4 17 4 12 6 -4 25 -36 41 -71 34 -74 50 -82 124 -64 177 41 290 115 303 197 6 41 17 50 41 34 9 -6 5 -21 -14 -60 -20 -41 -23 -55 -14 -66 14 -17 9 -20 -45 -35 -23 -6 -58 -22 -78 -36 -21 -14 -79 -42 -129 -63 -109 -45 -157 -85 -157 -133 0 -55 32 -79 104 -79 34 0 79 -5 101 -11 22 -5 48 -12 59 -14 29 -7 33 -15 13 -27 -10 -5 -27 -23 -36 -40 l-19 -29 -22 31 c-32 45 -91 73 -127 59 -34 -13 -89 -64 -111 -104 -29 -52 -19 -383 14 -446 l15 -29 -211 0 -210 0 15 24 c40 61 59 303 29 374 -56 136 -211 166 -449 87 -11 -4 8 10 42 30 127 73 118 101 -50 151 -60 18 -89 39 -40 29 15 -3 86 -10 157 -16 123 -10 198 -27 298 -65 45 -18 47 -18 67 0 56 51 -10 150 -228 345 -45 40 -80 75 -78 77 2 2 28 -9 58 -26 64 -35 72 -36 97 -9 28 29 66 170 59 218 -5 37 -3 40 22 44 14 2 29 5 34 6 4 0 7 -4 7 -9z m-643 -477 c14 -21 14 -21 -14 -14 -15 4 -30 15 -31 25 -5 25 26 17 45 -11z"/> <path d="M1729 2062 c-26 -23 -32 -37 -33 -72 -1 -54 15 -61 54 -22 25 25 30 39 30 76 0 25 -4 46 -10 46 -5 0 -24 -13 -41 -28z"/> <path d="M787 2033 c-9 -16 19 -77 43 -95 14 -10 43 -21 64 -25 l39 -6 -6 33 c-4 18 -12 39 -19 47 -23 28 -112 61 -121 46z"/> <path d="M1281 2004 c-23 -29 -28 -79 -9 -90 19 -12 58 43 58 82 0 42 -20 45 -49 8z"/> <path d="M2371 2004 c-18 -23 -22 -37 -18 -68 8 -54 23 -67 48 -37 22 27 25 89 6 115 -13 17 -15 17 -36 -10z"/> <path d="M1968 1991 l-33 -30 28 -10 c32 -12 70 -1 104 31 29 27 21 38 -27 38 -30 0 -48 -7 -72 -29z"/> <path d="M2184 1959 c-24 -25 -29 -38 -28 -75 0 -24 3 -47 7 -50 12 -12 49 19 63 52 14 34 11 104 -5 104 -4 0 -20 -14 -37 -31z"/> <path d="M1510 1930 c0 -33 38 -80 65 -80 26 0 18 49 -14 81 -38 37 -51 37 -51 -1z"/> <path d="M700 1898 c-27 -30 -34 -60 -23 -105 l9 -38 32 32 c28 27 32 38 32 82 0 58 -15 66 -50 29z"/> <path d="M1966 1862 c-9 -27 8 -66 40 -91 36 -29 44 -27 44 12 0 32 -11 47 -62 86 -14 10 -17 9 -22 -7z"/> <path d="M1100 1786 c0 -52 25 -88 81 -116 21 -11 41 -20 44 -20 13 0 3 78 -15 107 -16 26 -83 73 -105 73 -3 0 -5 -20 -5 -44z"/> <path d="M1794 1801 c-20 -9 -74 -70 -74 -83 0 -15 65 -17 94 -3 32 15 83 72 73 81 -10 10 -73 13 -93 5z"/> <path d="M790 1760 c12 -66 77 -120 146 -120 25 0 26 2 20 33 -12 62 -64 109 -137 122 l-37 7 8 -42z m94 -31 c29 -23 34 -39 11 -39 -17 0 -55 35 -55 50 0 16 15 12 44 -11z"/> <path d="M2402 1784 c-25 -17 -57 -73 -47 -82 3 -3 22 -6 42 -6 30 0 43 7 75 43 21 24 38 47 38 52 0 15 -84 10 -108 -7z"/> <path d="M490 1723 c1 -44 13 -63 60 -92 46 -28 60 -27 60 4 0 39 -27 83 -63 105 -47 29 -57 26 -57 -17z"/> <path d="M1490 1731 c-24 -23 -30 -38 -30 -70 0 -48 15 -53 49 -17 25 27 40 99 22 110 -6 4 -25 -6 -41 -23z"/> <path d="M1902 1669 c-42 -27 -62 -67 -62 -123 0 -70 6 -79 41 -60 47 24 69 69 69 142 0 34 -3 62 -7 62 -5 0 -23 -10 -41 -21z m2 -101 c-8 -16 -19 -26 -25 -22 -11 6 -3 41 14 62 18 23 27 -9 11 -40z"/> <path d="M2405 1621 c-30 -13 -54 -44 -61 -79 -6 -27 -4 -32 13 -32 29 0 64 29 79 66 23 55 16 64 -31 45z"/> <path d="M397 1553 c-15 -14 -6 -72 16 -104 23 -34 94 -82 109 -73 14 9 9 64 -8 100 -10 20 -34 45 -59 59 -46 27 -49 28 -58 18z m73 -78 c25 -26 20 -46 -7 -29 -18 11 -37 54 -24 54 4 0 18 -11 31 -25z"/> <path d="M830 1528 c-22 -37 -25 -70 -9 -117 13 -37 33 -40 53 -8 24 36 28 70 14 111 -17 51 -33 55 -58 14z"/> <path d="M1480 1483 c0 -43 35 -92 82 -113 51 -23 61 -18 53 23 -13 59 -44 90 -112 111 -20 6 -23 4 -23 -21z"/> <path d="M2541 1462 c-24 -12 -38 -28 -47 -54 -15 -43 -7 -52 30 -38 28 10 66 64 66 93 0 21 -6 21 -49 -1z"/> <path d="M1008 1393 c-21 -8 -38 -19 -38 -23 0 -15 59 -51 94 -57 22 -3 49 2 81 16 41 18 46 23 34 37 -36 44 -105 55 -171 27z m97 -33 c4 -6 -7 -10 -24 -10 -17 0 -31 5 -31 10 0 6 11 10 24 10 14 0 28 -4 31 -10z"/> <path d="M2273 1383 c-31 -6 -29 -16 9 -48 26 -22 39 -26 71 -22 54 7 57 14 19 48 -31 28 -49 32 -99 22z"/> <path d="M2095 1320 c-27 -11 -61 -49 -74 -83 -16 -42 -14 -47 23 -47 53 0 126 72 126 125 0 17 -40 20 -75 5z"/> <path d="M230 1289 l-34 -21 23 -19 c30 -25 68 -24 111 2 l34 21 -23 19 c-30 25 -68 24 -111 -2z"/> <path d="M525 1226 c-16 -7 -38 -22 -48 -33 -17 -20 -17 -21 17 -37 43 -20 84 -13 127 24 l33 27 -31 17 c-38 19 -58 20 -98 2z"/> <path d="M2500 1230 c-13 -9 -12 -13 9 -30 23 -20 70 -25 105 -11 18 7 18 8 -4 29 -25 24 -83 30 -110 12z"/> <path d="M240 1142 c0 -44 65 -92 125 -92 29 0 31 10 9 51 -25 49 -134 82 -134 41z"/> <path d="M643 1103 c-28 -5 -28 -8 -3 -43 25 -35 77 -53 124 -45 35 7 35 7 21 36 -9 16 -23 33 -33 38 -23 12 -82 20 -109 14z"/> <path d="M2418 1094 c-29 -15 -45 -39 -58 -85 -8 -27 -7 -29 19 -29 48 0 111 69 111 120 0 15 -41 12 -72 -6z"/> <path d="M2645 1086 c-24 -24 -42 -72 -32 -83 3 -3 18 -1 33 4 29 10 58 43 69 81 5 19 3 22 -20 22 -14 0 -37 -11 -50 -24z"/> <path d="M1891 946 c-20 -24 -16 -81 10 -117 21 -30 23 -31 36 -13 21 28 16 85 -10 118 -20 25 -24 26 -36 12z"/> <path d="M214 936 c-18 -14 -18 -15 9 -25 27 -10 77 2 77 20 0 21 -59 24 -86 5z"/> <path d="M1016 908 c-32 -29 -46 -78 -22 -78 26 0 66 46 66 75 0 31 -11 32 -44 3z"/> <path d="M2628 893 c-50 -13 5 -63 68 -63 46 0 55 5 47 26 -12 31 -69 49 -115 37z"/> <path d="M425 871 c-31 -18 -71 -69 -62 -77 3 -3 23 -6 45 -7 42 -1 80 23 104 67 20 37 -37 48 -87 17z"/> <path d="M718 855 c-28 -16 -74 -82 -64 -92 10 -11 71 -6 95 7 23 12 61 66 61 88 0 17 -58 15 -92 -3z"/> <path d="M2318 843 c-10 -2 -18 -8 -18 -12 0 -16 42 -62 70 -76 31 -16 125 -21 134 -7 10 16 -35 73 -69 88 -33 14 -81 17 -117 7z m112 -48 c10 -12 9 -15 -7 -15 -10 0 -28 7 -39 15 -18 14 -18 14 7 15 15 0 32 -7 39 -15z"/> <path d="M2147 823 c-20 -19 7 -105 37 -116 31 -12 35 59 5 97 -21 27 -31 31 -42 19z"/> </g> </svg> 